<?xml version="1.0" encoding="UTF-8" standalone="no"?>
<!DOCTYPE svg PUBLIC "-//W3C//DTD SVG 1.1//EN" "http://www.w3.org/Graphics/SVG/1.1/DTD/svg11.dtd">
<svg width="100%" height="100%" viewBox="0 0 95 81" version="1.1" xmlns="http://www.w3.org/2000/svg" xmlns:xlink="http://www.w3.org/1999/xlink" xml:space="preserve" xmlns:serif="http://www.serif.com/" style="fill-rule:evenodd;clip-rule:evenodd;stroke-linejoin:round;stroke-miterlimit:2;">
    <g transform="matrix(1,0,0,1,-2.5,-9.9)">
        <g>
            <g>
                <path d="M8,21.2L39.3,21.2L39.3,41.5L44.8,41.5L44.8,14.1C44.8,11.7 42.9,9.9 40.6,9.9L6.7,9.9C4.3,9.9 2.5,11.8 2.5,14.1L2.5,80C2.5,82.4 4.4,84.2 6.7,84.2L16.8,84.2L16.8,67.9L8,67.9L8,21.2ZM18.7,14.1L28.4,14.1C29.2,14.1 29.8,14.7 29.8,15.5C29.8,16.3 29.2,16.9 28.4,16.9L18.7,16.9C17.9,16.9 17.3,16.3 17.3,15.5C17.3,14.7 18,14.1 18.7,14.1Z" style="fill-rule:nonzero;"/>
                <path d="M93.2,47.8L27.4,47.8C25,47.8 23.1,49.7 23.1,52.1L23.1,85.9C23.1,88.3 25,90.2 27.4,90.2L93.2,90.2C95.5,90.2 97.5,88.3 97.5,85.9L97.5,52.1C97.5,49.8 95.6,47.8 93.2,47.8ZM31.3,72.6C29.3,72.6 27.8,71 27.8,69.1C27.8,67.1 29.4,65.5 31.3,65.5C33.3,65.5 34.8,67.1 34.8,69.1C34.8,71 33.2,72.6 31.3,72.6ZM86.1,84.6L39.4,84.6L39.4,53.3L86.1,53.3L86.1,84.6ZM93.2,73.8C93.2,74.6 92.6,75.2 91.8,75.2C91,75.2 90.4,74.6 90.4,73.8L90.4,64.1C90.4,63.3 91,62.7 91.8,62.7C92.6,62.7 93.2,63.3 93.2,64.1L93.2,73.8Z" style="fill-rule:nonzero;"/>
                <path d="M62.2,33.8C61.7,33.3 61.5,32.7 61.5,32.1C61.5,31.5 61.7,30.8 62.2,30.4C63.2,29.4 64.7,29.4 65.7,30.4L67.8,32.5C67.1,26 61.6,20.8 54.9,20.8C53.5,20.8 52.4,19.7 52.4,18.3C52.4,16.9 53.5,15.8 54.9,15.8C64.4,15.8 72.2,23.3 72.8,32.6L75.2,30.2C76.2,29.2 77.7,29.2 78.7,30.2C79.7,31.2 79.7,32.7 78.7,33.7L72.2,40.2C71.2,41.2 69.7,41.2 68.7,40.2L62.2,33.8Z" style="fill-rule:nonzero;"/>
            </g>
        </g>
    </g>
</svg>
